<?xml version="1.0" standalone="no"?>
<!DOCTYPE svg PUBLIC "-//W3C//DTD SVG 20010904//EN"
 "http://www.w3.org/TR/2001/REC-SVG-20010904/DTD/svg10.dtd">
<svg version="1.0" xmlns="http://www.w3.org/2000/svg"
 width="170.000000pt" height="170.000000pt" viewBox="0 0 170.000000 170.000000"
 preserveAspectRatio="xMidYMid meet">
<metadata>
Created by potrace 1.14, written by Peter Selinger 2001-2017
</metadata>
<g transform="translate(0.000000,170.000000) scale(0.100000,-0.100000)"
fill="#000000" stroke="none">
<path d="M787 1634 c-2 -3 -26 -6 -53 -8 -27 -3 -62 -7 -79 -11 -16 -4 -36 -8
-42 -8 -7 0 -13 -4 -13 -9 0 -4 -3 -7 -7 -6 -5 1 -24 -4 -43 -11 -19 -8 -38
-14 -42 -15 -4 -1 -15 -8 -25 -16 -19 -17 -27 -20 -44 -20 -5 0 -8 -4 -5 -8 3
-5 0 -9 -7 -9 -21 0 -67 -35 -60 -46 3 -5 1 -7 -4 -4 -6 4 -30 -11 -53 -33
-23 -22 -47 -40 -53 -40 -6 0 -7 -3 -4 -6 4 -4 -1 -14 -11 -23 -34 -31 -62
-73 -55 -85 3 -6 3 -8 -2 -4 -11 10 -38 -29 -30 -42 4 -6 1 -9 -7 -8 -8 2 -12
-4 -10 -16 2 -10 -1 -15 -6 -12 -5 3 -15 -14 -22 -37 -8 -23 -18 -48 -23 -54
-5 -7 -6 -13 -2 -13 4 0 3 -6 -4 -13 -6 -8 -9 -23 -6 -36 2 -12 0 -19 -6 -16
-5 4 -10 -6 -10 -22 -1 -15 -3 -44 -6 -63 -9 -78 -11 -160 -3 -155 4 2 5 -7 2
-20 -2 -14 -1 -33 3 -42 4 -10 9 -31 11 -48 4 -33 11 -69 14 -72 2 -2 3 -6 5
-10 13 -49 58 -143 67 -143 5 0 7 -4 4 -8 -3 -5 4 -19 15 -30 11 -12 16 -22
12 -22 -4 0 -1 -6 7 -13 8 -7 23 -25 33 -40 10 -15 23 -25 29 -21 6 4 9 3 5
-2 -8 -13 20 -47 33 -39 6 4 9 1 8 -7 -2 -7 3 -12 9 -11 7 2 12 -3 10 -10 -1
-6 4 -11 10 -10 7 2 12 -3 10 -10 -1 -6 4 -11 11 -10 6 2 12 -1 12 -7 0 -15
79 -62 92 -54 6 4 9 3 5 -2 -3 -5 12 -19 34 -31 22 -12 36 -16 32 -10 -3 7 3
3 15 -7 12 -11 22 -16 22 -12 0 4 10 1 22 -5 22 -12 46 -18 94 -23 11 -1 25
-6 31 -9 12 -8 20 -8 133 -8 62 0 145 6 145 11 0 1 9 3 20 4 66 9 187 54 179
67 -3 5 3 6 12 2 12 -4 15 -3 10 5 -4 8 -2 10 7 6 8 -3 17 2 21 11 3 9 10 14
14 11 5 -3 18 4 30 14 12 11 25 20 29 20 16 0 103 87 96 95 -5 4 -3 5 3 2 6
-3 18 3 27 14 9 10 15 19 12 19 -3 0 3 9 13 19 30 34 39 46 63 92 13 24 27 46
30 49 12 11 51 129 45 139 -3 5 -1 11 4 13 22 7 34 227 18 339 -7 54 -57 203
-69 207 -5 2 -9 10 -9 17 0 22 -81 135 -92 129 -7 -4 -8 -2 -4 4 7 12 -106
132 -123 132 -4 0 -20 11 -35 25 -15 14 -33 25 -40 25 -8 0 -19 7 -26 15 -7 8
-16 12 -21 9 -5 -3 -9 0 -9 6 0 7 -7 9 -17 6 -10 -4 -14 -4 -10 0 9 9 -112 56
-124 48 -5 -3 -9 -1 -9 3 0 5 -10 9 -22 10 -13 1 -34 4 -48 7 -35 8 -167 15
-173 10z m65 -346 c4 -7 8 -8 8 -3 0 6 5 2 11 -8 6 -9 14 -15 20 -12 5 3 6 -1
3 -9 -8 -20 -1 -20 34 -2 15 7 36 12 47 9 11 -2 30 -5 42 -6 11 -1 19 -5 16
-9 -4 -8 12 -12 30 -9 5 1 6 -3 2 -9 -3 -5 1 -13 9 -16 8 -3 18 -14 21 -24 3
-9 25 -25 49 -34 25 -9 47 -24 50 -32 3 -9 11 -12 18 -8 7 4 10 4 7 0 -4 -4
-1 -23 6 -43 7 -20 10 -50 8 -68 -3 -20 3 -45 14 -66 10 -19 18 -43 16 -54 -2
-22 -10 -59 -13 -62 -2 -2 -3 -7 -4 -12 -1 -11 -66 -71 -76 -71 -4 0 -7 -7 -8
-15 -1 -8 -3 -22 -4 -30 -1 -8 -5 -12 -9 -9 -4 2 -10 -5 -14 -15 -3 -11 -15
-23 -26 -26 -10 -4 -17 -11 -14 -16 3 -5 -2 -6 -11 -2 -10 4 -15 2 -11 -3 8
-13 -85 -9 -111 5 -15 8 -23 7 -31 -3 -6 -7 -7 -17 -3 -21 4 -5 2 -5 -4 -2
-19 11 -36 -19 -41 -70 -2 -27 -4 -54 -3 -60 2 -47 5 -63 10 -63 3 0 6 -17 7
-38 l2 -37 -84 0 c-47 0 -85 2 -86 5 0 3 -2 13 -4 23 -2 9 1 15 6 11 5 -3 9 5
10 18 0 13 3 32 5 43 6 23 6 150 0 180 -2 12 -10 19 -20 17 -9 -2 -16 2 -16 8
0 5 -7 10 -15 10 -8 0 -15 5 -15 11 0 6 -9 8 -21 4 -33 -11 -99 -13 -105 -3
-3 4 -10 6 -15 3 -5 -4 -9 -1 -9 4 0 6 -7 11 -15 11 -8 0 -14 6 -13 13 2 6 -3
11 -10 9 -6 -1 -12 1 -11 5 2 14 -13 53 -21 53 -4 0 -5 10 -3 23 3 14 -5 32
-22 50 -44 46 -35 144 16 187 11 8 21 31 23 50 3 19 5 36 5 38 1 1 1 4 1 7 0
3 11 16 25 29 13 13 21 26 17 30 -4 4 -2 7 3 5 14 -3 66 10 89 22 14 8 16 7
11 -2 -6 -8 -4 -10 4 -4 7 4 11 15 8 25 -3 12 5 26 24 41 16 12 26 26 22 32
-3 6 -1 7 5 3 7 -4 12 -3 12 1 0 5 17 10 37 11 21 2 39 5 41 7 7 7 66 -15 74
-27z"/>
<path d="M716 714 c-4 -10 -1 -21 6 -26 23 -14 29 -9 17 15 -16 30 -16 30 -23
11z"/>
<path d="M778 697 c19 -33 37 -37 37 -9 0 9 5 21 10 25 6 5 0 7 -12 4 -13 -3
-23 -2 -23 2 0 4 -7 8 -15 8 -13 0 -12 -5 3 -30z"/>
<path d="M861 713 c0 -10 -3 -34 -7 -53 l-7 -35 23 20 c14 12 20 14 15 5 -5
-10 -1 -9 11 3 17 16 17 20 4 30 -9 7 -14 20 -12 30 2 10 -3 17 -12 17 -8 0
-15 -8 -15 -17z"/>
</g>
</svg>
